<svg width="96" height="96" viewBox="0 0 96 96" fill="none" xmlns="http://www.w3.org/2000/svg">
<path d="M18.2344 88.0336H22.5512C29.6198 88.0336 35.9096 83.548 38.2121 76.865C38.5827 75.7894 37.7837 74.6689 36.646 74.6689H18.2344V88.0336Z" fill="#84CC16"/>
<path d="M23.0291 33.4206H18V20.5168H33.1559C36.5257 20.5168 39.5543 18.4603 40.7973 15.328C43.0318 9.69709 48.4764 6 54.5345 6H76.7584V19.8255H43.5549C40.3556 19.8255 37.4666 21.739 36.2184 24.6848C33.9744 29.9805 28.7806 33.4206 23.0291 33.4206Z" fill="#84CC16"/>
<path d="M23.2635 61.0739H18.2344V48.1701H33.3903C36.7601 48.1701 39.7887 46.1136 41.0316 42.9814C43.2661 37.3504 48.7108 33.6533 54.7689 33.6533H73.3059V47.4788H43.7893C40.59 47.4788 37.7009 49.3923 36.4527 52.3381C34.2088 57.6338 29.015 61.0739 23.2635 61.0739Z" fill="#84CC16"/>
</svg>
